<mxfile host="app.diagrams.net" agent="Mozilla/5.0 (Windows NT 10.0; Win64; x64) AppleWebKit/537.36 (KHTML, like Gecko) Chrome/132.0.0.0 Safari/537.36 Edg/132.0.0.0" version="26.0.11">
  <diagram name="第 1 页" id="J_gIsVV8n9-Ws0-fmsln">
    <mxGraphModel dx="2014" dy="930" grid="1" gridSize="10" guides="0" tooltips="1" connect="1" arrows="1" fold="1" page="1" pageScale="1" pageWidth="827" pageHeight="1169" math="0" shadow="0">
      <root>
        <mxCell id="0" />
        <mxCell id="1" parent="0" />
        <mxCell id="CGZvQxFrTtPSDZ94u5pw-86" value="" style="group;fontSize=12;" parent="1" connectable="0" vertex="1">
          <mxGeometry x="190.06" y="380" width="130" height="40" as="geometry" />
        </mxCell>
        <mxCell id="CGZvQxFrTtPSDZ94u5pw-44" value="&lt;span&gt;隔膜泵&lt;/span&gt;" style="rounded=0;whiteSpace=wrap;html=1;fillColor=#f8cecc;strokeColor=#b85450;fontFamily=Noto Sans SC;fontSource=https%3A%2F%2Ffonts.googleapis.com%2Fcss%3Ffamily%3DNoto%2BSans%2BSC;fontSize=12;" parent="CGZvQxFrTtPSDZ94u5pw-86" vertex="1">
          <mxGeometry width="120" height="20" as="geometry" />
        </mxCell>
        <mxCell id="CGZvQxFrTtPSDZ94u5pw-82" value="真空端" style="rounded=0;whiteSpace=wrap;html=1;fillColor=#1ba1e2;fontColor=#ffffff;strokeColor=none;fontFamily=Noto Sans SC;fontSource=https%3A%2F%2Ffonts.googleapis.com%2Fcss%3Ffamily%3DNoto%2BSans%2BSC;fontSize=12;" parent="CGZvQxFrTtPSDZ94u5pw-86" vertex="1">
          <mxGeometry x="80" width="40" height="20" as="geometry" />
        </mxCell>
        <mxCell id="CGZvQxFrTtPSDZ94u5pw-83" value="压气端" style="rounded=0;whiteSpace=wrap;html=1;fillColor=#1ba1e2;fontColor=#ffffff;strokeColor=none;fontFamily=Noto Sans SC;fontSource=https%3A%2F%2Ffonts.googleapis.com%2Fcss%3Ffamily%3DNoto%2BSans%2BSC;fontSize=12;" parent="CGZvQxFrTtPSDZ94u5pw-86" vertex="1">
          <mxGeometry width="40" height="20" as="geometry" />
        </mxCell>
        <mxCell id="CGZvQxFrTtPSDZ94u5pw-169" style="edgeStyle=orthogonalEdgeStyle;rounded=0;orthogonalLoop=1;jettySize=auto;html=1;exitX=0;exitY=0.5;exitDx=0;exitDy=0;endArrow=none;startFill=0;flowAnimation=1;" parent="1" source="CGZvQxFrTtPSDZ94u5pw-116" edge="1">
          <mxGeometry relative="1" as="geometry">
            <mxPoint x="330.05999999999995" y="389.8571428571428" as="targetPoint" />
          </mxGeometry>
        </mxCell>
        <mxCell id="CGZvQxFrTtPSDZ94u5pw-116" value="&lt;span style=&quot;font-style: normal; font-variant-ligatures: normal; font-variant-caps: normal; font-weight: 400; letter-spacing: normal; orphans: 2; text-align: center; text-indent: 0px; text-transform: none; widows: 2; word-spacing: 0px; -webkit-text-stroke-width: 0px; white-space: normal; text-decoration-thickness: initial; text-decoration-style: initial; text-decoration-color: initial; float: none; display: inline !important;&quot;&gt;真空计&lt;/span&gt;" style="rounded=0;whiteSpace=wrap;html=1;fontFamily=Noto Sans SC;fontSource=https%3A%2F%2Ffonts.googleapis.com%2Fcss%3Ffamily%3DNoto%2BSans%2BSC;fillColor=#f0a30a;fontColor=#000000;strokeColor=#BD7000;labelBackgroundColor=none;fontSize=12;" parent="1" vertex="1">
          <mxGeometry x="350.05999999999995" y="380" width="40" height="20" as="geometry" />
        </mxCell>
        <mxCell id="CGZvQxFrTtPSDZ94u5pw-127" value="" style="group" parent="1" connectable="0" vertex="1">
          <mxGeometry x="270.05999999999995" y="80" width="120" height="60" as="geometry" />
        </mxCell>
        <mxCell id="CGZvQxFrTtPSDZ94u5pw-117" value="&lt;div&gt;气&lt;span style=&quot;background-color: transparent; color: light-dark(rgb(0, 0, 0), rgb(255, 255, 255));&quot;&gt;流排&lt;/span&gt;&lt;span style=&quot;background-color: transparent; color: light-dark(rgb(0, 0, 0), rgb(255, 255, 255));&quot;&gt;(四位&lt;/span&gt;&lt;span style=&quot;background-color: transparent; color: light-dark(rgb(0, 0, 0), rgb(255, 255, 255));&quot;&gt;)&lt;/span&gt;&lt;/div&gt;" style="rounded=0;whiteSpace=wrap;html=1;fontFamily=Noto Sans SC;fontSource=https%3A%2F%2Ffonts.googleapis.com%2Fcss%3Ffamily%3DNoto%2BSans%2BSC;fillColor=#d5e8d4;strokeColor=#82b366;fontSize=12;" parent="CGZvQxFrTtPSDZ94u5pw-127" vertex="1">
          <mxGeometry width="120" height="60" as="geometry" />
        </mxCell>
        <mxCell id="CGZvQxFrTtPSDZ94u5pw-118" value="1" style="rounded=0;whiteSpace=wrap;html=1;fontFamily=Noto Sans SC;fontSource=https%3A%2F%2Ffonts.googleapis.com%2Fcss%3Ffamily%3DNoto%2BSans%2BSC;fillColor=#1ba1e2;fontColor=#ffffff;strokeColor=none;fontSize=12;" parent="CGZvQxFrTtPSDZ94u5pw-127" vertex="1">
          <mxGeometry x="10" width="20" height="20" as="geometry" />
        </mxCell>
        <mxCell id="CGZvQxFrTtPSDZ94u5pw-119" value="2" style="rounded=0;whiteSpace=wrap;html=1;fontFamily=Noto Sans SC;fontSource=https%3A%2F%2Ffonts.googleapis.com%2Fcss%3Ffamily%3DNoto%2BSans%2BSC;fillColor=#1ba1e2;fontColor=#ffffff;strokeColor=none;fontSize=12;" parent="CGZvQxFrTtPSDZ94u5pw-127" vertex="1">
          <mxGeometry x="50" width="20" height="20" as="geometry" />
        </mxCell>
        <mxCell id="CGZvQxFrTtPSDZ94u5pw-120" value="3" style="rounded=0;whiteSpace=wrap;html=1;fontFamily=Noto Sans SC;fontSource=https%3A%2F%2Ffonts.googleapis.com%2Fcss%3Ffamily%3DNoto%2BSans%2BSC;fillColor=#1ba1e2;fontColor=#ffffff;strokeColor=none;fontSize=12;" parent="CGZvQxFrTtPSDZ94u5pw-127" vertex="1">
          <mxGeometry x="90" width="20" height="20" as="geometry" />
        </mxCell>
        <mxCell id="CGZvQxFrTtPSDZ94u5pw-125" value="0" style="rounded=0;whiteSpace=wrap;html=1;fontFamily=Noto Sans SC;fontSource=https%3A%2F%2Ffonts.googleapis.com%2Fcss%3Ffamily%3DNoto%2BSans%2BSC;fillColor=#1ba1e2;fontColor=#ffffff;strokeColor=none;fontSize=12;" parent="CGZvQxFrTtPSDZ94u5pw-127" vertex="1">
          <mxGeometry x="50" y="40" width="20" height="20" as="geometry" />
        </mxCell>
        <mxCell id="CGZvQxFrTtPSDZ94u5pw-168" style="edgeStyle=orthogonalEdgeStyle;rounded=0;orthogonalLoop=1;jettySize=auto;html=1;exitX=0.5;exitY=1;exitDx=0;exitDy=0;entryX=0.5;entryY=0;entryDx=0;entryDy=0;flowAnimation=1;" parent="1" source="CGZvQxFrTtPSDZ94u5pw-134" target="CGZvQxFrTtPSDZ94u5pw-147" edge="1">
          <mxGeometry relative="1" as="geometry" />
        </mxCell>
        <mxCell id="CGZvQxFrTtPSDZ94u5pw-134" value="&lt;span style=&quot;font-style: normal; font-variant-ligatures: normal; font-variant-caps: normal; font-weight: 400; letter-spacing: normal; orphans: 2; text-align: center; text-indent: 0px; text-transform: none; widows: 2; word-spacing: 0px; -webkit-text-stroke-width: 0px; white-space: normal; text-decoration-thickness: initial; text-decoration-style: initial; text-decoration-color: initial; float: none; display: inline !important;&quot;&gt;节流阀&lt;/span&gt;" style="rounded=0;whiteSpace=wrap;html=1;fontFamily=Noto Sans SC;fontSource=https%3A%2F%2Ffonts.googleapis.com%2Fcss%3Ffamily%3DNoto%2BSans%2BSC;fillColor=#f0a30a;fontColor=#000000;strokeColor=#BD7000;labelBackgroundColor=none;fontSize=12;" parent="1" vertex="1">
          <mxGeometry x="280.05999999999995" y="190" width="40" height="20" as="geometry" />
        </mxCell>
        <mxCell id="CGZvQxFrTtPSDZ94u5pw-135" value="&lt;span style=&quot;font-style: normal; font-variant-ligatures: normal; font-variant-caps: normal; font-weight: 400; letter-spacing: normal; orphans: 2; text-align: center; text-indent: 0px; text-transform: none; widows: 2; word-spacing: 0px; -webkit-text-stroke-width: 0px; white-space: normal; text-decoration-thickness: initial; text-decoration-style: initial; text-decoration-color: initial; float: none; display: inline !important;&quot;&gt;过滤器&lt;/span&gt;" style="rounded=0;whiteSpace=wrap;html=1;fontFamily=Noto Sans SC;fontSource=https%3A%2F%2Ffonts.googleapis.com%2Fcss%3Ffamily%3DNoto%2BSans%2BSC;fillColor=#f0a30a;fontColor=#000000;strokeColor=#BD7000;labelBackgroundColor=none;fontSize=12;" parent="1" vertex="1">
          <mxGeometry x="280.05999999999995" y="170" width="40" height="20" as="geometry" />
        </mxCell>
        <mxCell id="CGZvQxFrTtPSDZ94u5pw-142" value="" style="group;fillColor=#6d8764;fontColor=#ffffff;strokeColor=default;fontFamily=Noto Sans SC;fontSource=https%3A%2F%2Ffonts.googleapis.com%2Fcss%3Ffamily%3DNoto%2BSans%2BSC;fontSize=12;" parent="1" connectable="0" vertex="1">
          <mxGeometry x="270.05999999999995" y="230" width="120" height="80" as="geometry" />
        </mxCell>
        <mxCell id="CGZvQxFrTtPSDZ94u5pw-143" value="&lt;div&gt;&lt;br&gt;&lt;/div&gt;电磁换向阀&lt;div&gt;&amp;nbsp;&lt;span style=&quot;background-color: transparent; color: light-dark(rgb(0, 0, 0), rgb(255, 255, 255));&quot;&gt;(二位五通)&lt;/span&gt;&lt;div&gt;&lt;br&gt;&lt;/div&gt;&lt;/div&gt;" style="rounded=0;whiteSpace=wrap;html=1;fontFamily=Noto Sans SC;fontSource=https%3A%2F%2Ffonts.googleapis.com%2Fcss%3Ffamily%3DNoto%2BSans%2BSC;fillColor=#d5e8d4;strokeColor=#82b366;fontSize=12;" parent="CGZvQxFrTtPSDZ94u5pw-142" vertex="1">
          <mxGeometry width="120" height="80" as="geometry" />
        </mxCell>
        <mxCell id="CGZvQxFrTtPSDZ94u5pw-144" value="R" style="rounded=0;whiteSpace=wrap;html=1;fontFamily=Noto Sans SC;fontSource=https%3A%2F%2Ffonts.googleapis.com%2Fcss%3Ffamily%3DNoto%2BSans%2BSC;fillColor=#1ba1e2;fontColor=#ffffff;strokeColor=none;fontSize=12;" parent="CGZvQxFrTtPSDZ94u5pw-142" vertex="1">
          <mxGeometry x="10" y="60" width="20" height="20" as="geometry" />
        </mxCell>
        <mxCell id="CGZvQxFrTtPSDZ94u5pw-145" value="P" style="rounded=0;whiteSpace=wrap;html=1;fontFamily=Noto Sans SC;fontSource=https%3A%2F%2Ffonts.googleapis.com%2Fcss%3Ffamily%3DNoto%2BSans%2BSC;fillColor=#1ba1e2;fontColor=#ffffff;strokeColor=none;fontSize=12;" parent="CGZvQxFrTtPSDZ94u5pw-142" vertex="1">
          <mxGeometry x="50" y="60" width="20" height="20" as="geometry" />
        </mxCell>
        <mxCell id="CGZvQxFrTtPSDZ94u5pw-146" value="S" style="rounded=0;whiteSpace=wrap;html=1;fontFamily=Noto Sans SC;fontSource=https%3A%2F%2Ffonts.googleapis.com%2Fcss%3Ffamily%3DNoto%2BSans%2BSC;fillColor=#1ba1e2;fontColor=#ffffff;strokeColor=none;fontSize=12;" parent="CGZvQxFrTtPSDZ94u5pw-142" vertex="1">
          <mxGeometry x="90" y="60" width="20" height="20" as="geometry" />
        </mxCell>
        <mxCell id="CGZvQxFrTtPSDZ94u5pw-147" value="A" style="rounded=0;whiteSpace=wrap;html=1;fontFamily=Noto Sans SC;fontSource=https%3A%2F%2Ffonts.googleapis.com%2Fcss%3Ffamily%3DNoto%2BSans%2BSC;fillColor=#1ba1e2;fontColor=#ffffff;strokeColor=none;fontSize=12;" parent="CGZvQxFrTtPSDZ94u5pw-142" vertex="1">
          <mxGeometry x="20" width="20" height="20" as="geometry" />
        </mxCell>
        <mxCell id="CGZvQxFrTtPSDZ94u5pw-148" value="B" style="rounded=0;whiteSpace=wrap;html=1;fontFamily=Noto Sans SC;fontSource=https%3A%2F%2Ffonts.googleapis.com%2Fcss%3Ffamily%3DNoto%2BSans%2BSC;fillColor=#1ba1e2;fontColor=#ffffff;strokeColor=none;fontSize=12;" parent="CGZvQxFrTtPSDZ94u5pw-142" vertex="1">
          <mxGeometry x="80" width="20" height="20" as="geometry" />
        </mxCell>
        <mxCell id="CGZvQxFrTtPSDZ94u5pw-149" value="12V" style="rounded=0;whiteSpace=wrap;html=1;fontFamily=Noto Sans SC;fontSource=https%3A%2F%2Ffonts.googleapis.com%2Fcss%3Ffamily%3DNoto%2BSans%2BSC;fillColor=#e51400;fontColor=#ffffff;strokeColor=none;fontSize=12;" parent="CGZvQxFrTtPSDZ94u5pw-142" vertex="1">
          <mxGeometry y="30" width="20" height="20" as="geometry" />
        </mxCell>
        <mxCell id="CGZvQxFrTtPSDZ94u5pw-150" value="POS" style="rounded=0;whiteSpace=wrap;html=1;fontFamily=Noto Sans SC;fontSource=https%3A%2F%2Ffonts.googleapis.com%2Fcss%3Ffamily%3DNoto%2BSans%2BSC;fillColor=#6d8764;fontColor=#ffffff;strokeColor=none;fontSize=12;" parent="CGZvQxFrTtPSDZ94u5pw-142" vertex="1">
          <mxGeometry x="100" y="30" width="20" height="20" as="geometry" />
        </mxCell>
        <mxCell id="CGZvQxFrTtPSDZ94u5pw-156" value="堵" style="rounded=0;whiteSpace=wrap;html=1;fillColor=#f0a30a;fontColor=#000000;strokeColor=none;" parent="1" vertex="1">
          <mxGeometry x="280.05999999999995" y="330" width="20" height="20" as="geometry" />
        </mxCell>
        <mxCell id="CGZvQxFrTtPSDZ94u5pw-157" value="堵" style="rounded=0;whiteSpace=wrap;html=1;fillColor=#f0a30a;fontColor=#000000;strokeColor=none;" parent="1" vertex="1">
          <mxGeometry x="360.05999999999995" y="330" width="20" height="20" as="geometry" />
        </mxCell>
        <mxCell id="CGZvQxFrTtPSDZ94u5pw-158" style="edgeStyle=orthogonalEdgeStyle;rounded=0;orthogonalLoop=1;jettySize=auto;html=1;exitX=0.5;exitY=1;exitDx=0;exitDy=0;entryX=1;entryY=0.5;entryDx=0;entryDy=0;flowAnimation=1;" parent="1" source="CGZvQxFrTtPSDZ94u5pw-145" target="CGZvQxFrTtPSDZ94u5pw-82" edge="1">
          <mxGeometry relative="1" as="geometry" />
        </mxCell>
        <mxCell id="CGZvQxFrTtPSDZ94u5pw-140" value="" style="group" parent="1" connectable="0" vertex="1">
          <mxGeometry x="270.05999999999995" y="40" width="120" height="20" as="geometry" />
        </mxCell>
        <mxCell id="CGZvQxFrTtPSDZ94u5pw-121" value="吸盘" style="rounded=0;whiteSpace=wrap;html=1;fontFamily=Noto Sans SC;fontSource=https%3A%2F%2Ffonts.googleapis.com%2Fcss%3Ffamily%3DNoto%2BSans%2BSC;fontSize=12;fillColor=#ffe6cc;strokeColor=#d79b00;" parent="CGZvQxFrTtPSDZ94u5pw-140" vertex="1">
          <mxGeometry width="40" height="20" as="geometry" />
        </mxCell>
        <mxCell id="CGZvQxFrTtPSDZ94u5pw-122" value="吸盘" style="rounded=0;whiteSpace=wrap;html=1;fontFamily=Noto Sans SC;fontSource=https%3A%2F%2Ffonts.googleapis.com%2Fcss%3Ffamily%3DNoto%2BSans%2BSC;fontSize=12;fillColor=#ffe6cc;strokeColor=#d79b00;" parent="CGZvQxFrTtPSDZ94u5pw-140" vertex="1">
          <mxGeometry x="40" width="40" height="20" as="geometry" />
        </mxCell>
        <mxCell id="CGZvQxFrTtPSDZ94u5pw-123" value="吸盘" style="rounded=0;whiteSpace=wrap;html=1;fontFamily=Noto Sans SC;fontSource=https%3A%2F%2Ffonts.googleapis.com%2Fcss%3Ffamily%3DNoto%2BSans%2BSC;fontSize=12;fillColor=#ffe6cc;strokeColor=#d79b00;" parent="CGZvQxFrTtPSDZ94u5pw-140" vertex="1">
          <mxGeometry x="80" width="40" height="20" as="geometry" />
        </mxCell>
        <mxCell id="CGZvQxFrTtPSDZ94u5pw-137" style="edgeStyle=orthogonalEdgeStyle;rounded=0;orthogonalLoop=1;jettySize=auto;html=1;exitX=0.5;exitY=1;exitDx=0;exitDy=0;entryX=0.5;entryY=0;entryDx=0;entryDy=0;flowAnimation=1;" parent="1" source="CGZvQxFrTtPSDZ94u5pw-121" target="CGZvQxFrTtPSDZ94u5pw-118" edge="1">
          <mxGeometry relative="1" as="geometry" />
        </mxCell>
        <mxCell id="CGZvQxFrTtPSDZ94u5pw-138" style="edgeStyle=orthogonalEdgeStyle;rounded=0;orthogonalLoop=1;jettySize=auto;html=1;exitX=0.5;exitY=1;exitDx=0;exitDy=0;entryX=0.5;entryY=0;entryDx=0;entryDy=0;flowAnimation=1;" parent="1" source="CGZvQxFrTtPSDZ94u5pw-122" target="CGZvQxFrTtPSDZ94u5pw-119" edge="1">
          <mxGeometry relative="1" as="geometry" />
        </mxCell>
        <mxCell id="CGZvQxFrTtPSDZ94u5pw-139" style="edgeStyle=orthogonalEdgeStyle;rounded=0;orthogonalLoop=1;jettySize=auto;html=1;exitX=0.5;exitY=1;exitDx=0;exitDy=0;entryX=0.5;entryY=0;entryDx=0;entryDy=0;flowAnimation=1;" parent="1" source="CGZvQxFrTtPSDZ94u5pw-123" target="CGZvQxFrTtPSDZ94u5pw-120" edge="1">
          <mxGeometry relative="1" as="geometry" />
        </mxCell>
        <mxCell id="CGZvQxFrTtPSDZ94u5pw-164" style="edgeStyle=orthogonalEdgeStyle;rounded=0;orthogonalLoop=1;jettySize=auto;html=1;exitX=0.5;exitY=1;exitDx=0;exitDy=0;entryX=0.5;entryY=0;entryDx=0;entryDy=0;flowAnimation=1;" parent="1" source="CGZvQxFrTtPSDZ94u5pw-125" target="CGZvQxFrTtPSDZ94u5pw-135" edge="1">
          <mxGeometry relative="1" as="geometry">
            <Array as="points">
              <mxPoint x="330.05999999999995" y="150" />
              <mxPoint x="300.05999999999995" y="150" />
            </Array>
          </mxGeometry>
        </mxCell>
        <mxCell id="CGZvQxFrTtPSDZ94u5pw-154" value="&lt;div style=&quot;forced-color-adjust: none; font-style: normal; font-variant-ligatures: normal; font-variant-caps: normal; font-weight: 400; letter-spacing: normal; orphans: 2; text-align: center; text-indent: 0px; text-transform: none; widows: 2; word-spacing: 0px; -webkit-text-stroke-width: 0px; white-space: normal; text-decoration-thickness: initial; text-decoration-style: initial; text-decoration-color: initial;&quot;&gt;消声器&lt;/div&gt;" style="rounded=0;whiteSpace=wrap;html=1;fontFamily=Noto Sans SC;fontSource=https%3A%2F%2Ffonts.googleapis.com%2Fcss%3Ffamily%3DNoto%2BSans%2BSC;fillColor=#f0a30a;fontColor=#000000;strokeColor=#BD7000;labelBorderColor=none;labelBackgroundColor=none;fillStyle=auto;fontSize=12;" parent="1" vertex="1">
          <mxGeometry x="340.05999999999995" y="170" width="40" height="20" as="geometry" />
        </mxCell>
        <mxCell id="CGZvQxFrTtPSDZ94u5pw-166" style="edgeStyle=orthogonalEdgeStyle;rounded=0;orthogonalLoop=1;jettySize=auto;html=1;exitX=0.5;exitY=1;exitDx=0;exitDy=0;entryX=0.5;entryY=0;entryDx=0;entryDy=0;flowAnimation=1;" parent="1" source="CGZvQxFrTtPSDZ94u5pw-155" target="CGZvQxFrTtPSDZ94u5pw-148" edge="1">
          <mxGeometry relative="1" as="geometry" />
        </mxCell>
        <mxCell id="CGZvQxFrTtPSDZ94u5pw-155" value="&lt;span style=&quot;font-style: normal; font-variant-ligatures: normal; font-variant-caps: normal; font-weight: 400; letter-spacing: normal; orphans: 2; text-align: center; text-indent: 0px; text-transform: none; widows: 2; word-spacing: 0px; -webkit-text-stroke-width: 0px; white-space: normal; text-decoration-thickness: initial; text-decoration-style: initial; text-decoration-color: initial; float: none; display: inline !important;&quot;&gt;节流阀&lt;/span&gt;" style="rounded=0;whiteSpace=wrap;html=1;fontFamily=Noto Sans SC;fontSource=https%3A%2F%2Ffonts.googleapis.com%2Fcss%3Ffamily%3DNoto%2BSans%2BSC;fillColor=#f0a30a;fontColor=#000000;strokeColor=#BD7000;labelBackgroundColor=none;fontSize=12;" parent="1" vertex="1">
          <mxGeometry x="340.05999999999995" y="190" width="40" height="20" as="geometry" />
        </mxCell>
        <mxCell id="CGZvQxFrTtPSDZ94u5pw-172" style="edgeStyle=orthogonalEdgeStyle;rounded=0;orthogonalLoop=1;jettySize=auto;html=1;exitX=0;exitY=0.5;exitDx=0;exitDy=0;entryX=1;entryY=0.5;entryDx=0;entryDy=0;flowAnimation=1;" parent="1" source="CGZvQxFrTtPSDZ94u5pw-83" target="CGZvQxFrTtPSDZ94u5pw-170" edge="1">
          <mxGeometry relative="1" as="geometry" />
        </mxCell>
        <mxCell id="CGZvQxFrTtPSDZ94u5pw-173" style="edgeStyle=orthogonalEdgeStyle;rounded=0;orthogonalLoop=1;jettySize=auto;html=1;exitX=0.5;exitY=1;exitDx=0;exitDy=0;entryX=0.5;entryY=0;entryDx=0;entryDy=0;endArrow=none;startFill=0;" parent="1" source="CGZvQxFrTtPSDZ94u5pw-144" target="CGZvQxFrTtPSDZ94u5pw-156" edge="1">
          <mxGeometry relative="1" as="geometry" />
        </mxCell>
        <mxCell id="CGZvQxFrTtPSDZ94u5pw-174" style="edgeStyle=orthogonalEdgeStyle;rounded=0;orthogonalLoop=1;jettySize=auto;html=1;exitX=0.5;exitY=1;exitDx=0;exitDy=0;entryX=0.5;entryY=0;entryDx=0;entryDy=0;endArrow=none;startFill=0;" parent="1" source="CGZvQxFrTtPSDZ94u5pw-146" target="CGZvQxFrTtPSDZ94u5pw-157" edge="1">
          <mxGeometry relative="1" as="geometry" />
        </mxCell>
        <mxCell id="CGZvQxFrTtPSDZ94u5pw-41" style="edgeStyle=orthogonalEdgeStyle;rounded=0;orthogonalLoop=1;jettySize=auto;html=1;exitX=0.25;exitY=0;exitDx=0;exitDy=0;fontFamily=Noto Sans SC;fontSource=https%3A%2F%2Ffonts.googleapis.com%2Fcss%3Ffamily%3DNoto%2BSans%2BSC;fontSize=12;entryX=0;entryY=0.5;entryDx=0;entryDy=0;flowAnimation=1;" parent="1" source="CGZvQxFrTtPSDZ94u5pw-14" target="CGZvQxFrTtPSDZ94u5pw-79" edge="1">
          <mxGeometry relative="1" as="geometry">
            <mxPoint x="90.10761904761904" y="130" as="targetPoint" />
            <Array as="points">
              <mxPoint x="90" y="150" />
              <mxPoint x="40" y="150" />
              <mxPoint x="40" y="70" />
            </Array>
          </mxGeometry>
        </mxCell>
        <mxCell id="CGZvQxFrTtPSDZ94u5pw-100" style="edgeStyle=orthogonalEdgeStyle;rounded=0;orthogonalLoop=1;jettySize=auto;html=1;exitX=0.75;exitY=0;exitDx=0;exitDy=0;entryX=0;entryY=0.5;entryDx=0;entryDy=0;flowAnimation=1;fontSize=12;" parent="1" source="CGZvQxFrTtPSDZ94u5pw-14" target="CGZvQxFrTtPSDZ94u5pw-92" edge="1">
          <mxGeometry relative="1" as="geometry">
            <mxPoint x="160.06" y="80" as="targetPoint" />
            <Array as="points">
              <mxPoint x="110" y="150" />
              <mxPoint x="130" y="150" />
              <mxPoint x="130" y="70" />
            </Array>
          </mxGeometry>
        </mxCell>
        <mxCell id="CGZvQxFrTtPSDZ94u5pw-28" style="edgeStyle=orthogonalEdgeStyle;rounded=0;orthogonalLoop=1;jettySize=auto;html=1;exitX=0.5;exitY=1;exitDx=0;exitDy=0;entryX=0.5;entryY=0;entryDx=0;entryDy=0;fontFamily=Noto Sans SC;fontSource=https%3A%2F%2Ffonts.googleapis.com%2Fcss%3Ffamily%3DNoto%2BSans%2BSC;fontSize=12;flowAnimation=1;" parent="1" source="CGZvQxFrTtPSDZ94u5pw-17" target="CGZvQxFrTtPSDZ94u5pw-27" edge="1">
          <mxGeometry relative="1" as="geometry" />
        </mxCell>
        <mxCell id="CGZvQxFrTtPSDZ94u5pw-31" style="edgeStyle=orthogonalEdgeStyle;rounded=0;orthogonalLoop=1;jettySize=auto;html=1;exitX=0.5;exitY=1;exitDx=0;exitDy=0;entryX=0.5;entryY=0;entryDx=0;entryDy=0;fontFamily=Noto Sans SC;fontSource=https%3A%2F%2Ffonts.googleapis.com%2Fcss%3Ffamily%3DNoto%2BSans%2BSC;fontSize=12;flowAnimation=1;" parent="1" source="CGZvQxFrTtPSDZ94u5pw-19" target="CGZvQxFrTtPSDZ94u5pw-30" edge="1">
          <mxGeometry relative="1" as="geometry" />
        </mxCell>
        <mxCell id="CGZvQxFrTtPSDZ94u5pw-103" style="edgeStyle=orthogonalEdgeStyle;rounded=0;orthogonalLoop=1;jettySize=auto;html=1;exitX=0.5;exitY=1;exitDx=0;exitDy=0;entryX=0.5;entryY=0;entryDx=0;entryDy=0;flowAnimation=1;fontSize=12;" parent="1" source="CGZvQxFrTtPSDZ94u5pw-37" target="CGZvQxFrTtPSDZ94u5pw-22" edge="1">
          <mxGeometry relative="1" as="geometry" />
        </mxCell>
        <mxCell id="CGZvQxFrTtPSDZ94u5pw-38" style="edgeStyle=orthogonalEdgeStyle;rounded=0;orthogonalLoop=1;jettySize=auto;html=1;exitX=0.5;exitY=0;exitDx=0;exitDy=0;entryX=0.5;entryY=1;entryDx=0;entryDy=0;fontFamily=Noto Sans SC;fontSource=https%3A%2F%2Ffonts.googleapis.com%2Fcss%3Ffamily%3DNoto%2BSans%2BSC;fontSize=12;flowAnimation=1;" parent="1" source="CGZvQxFrTtPSDZ94u5pw-21" target="CGZvQxFrTtPSDZ94u5pw-14" edge="1">
          <mxGeometry relative="1" as="geometry" />
        </mxCell>
        <mxCell id="CGZvQxFrTtPSDZ94u5pw-101" style="edgeStyle=orthogonalEdgeStyle;rounded=0;orthogonalLoop=1;jettySize=auto;html=1;exitX=1;exitY=0.5;exitDx=0;exitDy=0;entryX=0.75;entryY=0;entryDx=0;entryDy=0;flowAnimation=1;fontSize=12;" parent="1" source="CGZvQxFrTtPSDZ94u5pw-91" target="CGZvQxFrTtPSDZ94u5pw-37" edge="1">
          <mxGeometry relative="1" as="geometry">
            <mxPoint x="210.06" y="180" as="targetPoint" />
            <Array as="points">
              <mxPoint x="220" y="110" />
              <mxPoint x="220" y="150" />
              <mxPoint x="170" y="150" />
            </Array>
          </mxGeometry>
        </mxCell>
        <mxCell id="CGZvQxFrTtPSDZ94u5pw-102" style="edgeStyle=orthogonalEdgeStyle;rounded=0;orthogonalLoop=1;jettySize=auto;html=1;exitX=1;exitY=0.5;exitDx=0;exitDy=0;entryX=0.25;entryY=0;entryDx=0;entryDy=0;flowAnimation=1;fontSize=12;" parent="1" source="CGZvQxFrTtPSDZ94u5pw-78" target="CGZvQxFrTtPSDZ94u5pw-37" edge="1">
          <mxGeometry relative="1" as="geometry" />
        </mxCell>
        <mxCell id="CGZvQxFrTtPSDZ94u5pw-171" style="edgeStyle=orthogonalEdgeStyle;rounded=0;orthogonalLoop=1;jettySize=auto;html=1;exitX=0.5;exitY=0;exitDx=0;exitDy=0;entryX=0.5;entryY=1;entryDx=0;entryDy=0;flowAnimation=1;" parent="1" source="CGZvQxFrTtPSDZ94u5pw-170" target="CGZvQxFrTtPSDZ94u5pw-18" edge="1">
          <mxGeometry relative="1" as="geometry" />
        </mxCell>
        <mxCell id="CGZvQxFrTtPSDZ94u5pw-14" value="三通" style="shape=offPageConnector;whiteSpace=wrap;html=1;fontFamily=Noto Sans SC;fontSource=https%3A%2F%2Ffonts.googleapis.com%2Fcss%3Ffamily%3DNoto%2BSans%2BSC;fillColor=#f0a30a;fontColor=#000000;strokeColor=#BD7000;size=0.2;verticalAlign=top;fontSize=12;" parent="1" vertex="1">
          <mxGeometry x="80.06" y="170" width="40" height="40" as="geometry" />
        </mxCell>
        <mxCell id="CGZvQxFrTtPSDZ94u5pw-25" value="" style="group;fillColor=#6d8764;fontColor=#ffffff;strokeColor=default;fontFamily=Noto Sans SC;fontSource=https%3A%2F%2Ffonts.googleapis.com%2Fcss%3Ffamily%3DNoto%2BSans%2BSC;fontSize=12;" parent="1" connectable="0" vertex="1">
          <mxGeometry x="70.06" y="230" width="120" height="80" as="geometry" />
        </mxCell>
        <mxCell id="CGZvQxFrTtPSDZ94u5pw-16" value="&lt;div&gt;&lt;br&gt;&lt;/div&gt;电磁换向阀&lt;div&gt;&amp;nbsp;&lt;span style=&quot;background-color: transparent; color: light-dark(rgb(0, 0, 0), rgb(255, 255, 255));&quot;&gt;(二位五通)&lt;/span&gt;&lt;div&gt;&lt;br&gt;&lt;/div&gt;&lt;/div&gt;" style="rounded=0;whiteSpace=wrap;html=1;fontFamily=Noto Sans SC;fontSource=https%3A%2F%2Ffonts.googleapis.com%2Fcss%3Ffamily%3DNoto%2BSans%2BSC;fillColor=#d5e8d4;strokeColor=#82b366;fontSize=12;" parent="CGZvQxFrTtPSDZ94u5pw-25" vertex="1">
          <mxGeometry width="120" height="80" as="geometry" />
        </mxCell>
        <mxCell id="CGZvQxFrTtPSDZ94u5pw-17" value="R" style="rounded=0;whiteSpace=wrap;html=1;fontFamily=Noto Sans SC;fontSource=https%3A%2F%2Ffonts.googleapis.com%2Fcss%3Ffamily%3DNoto%2BSans%2BSC;fillColor=#1ba1e2;fontColor=#ffffff;strokeColor=none;fontSize=12;" parent="CGZvQxFrTtPSDZ94u5pw-25" vertex="1">
          <mxGeometry x="10" y="60" width="20" height="20" as="geometry" />
        </mxCell>
        <mxCell id="CGZvQxFrTtPSDZ94u5pw-18" value="P" style="rounded=0;whiteSpace=wrap;html=1;fontFamily=Noto Sans SC;fontSource=https%3A%2F%2Ffonts.googleapis.com%2Fcss%3Ffamily%3DNoto%2BSans%2BSC;fillColor=#1ba1e2;fontColor=#ffffff;strokeColor=none;fontSize=12;" parent="CGZvQxFrTtPSDZ94u5pw-25" vertex="1">
          <mxGeometry x="50" y="60" width="20" height="20" as="geometry" />
        </mxCell>
        <mxCell id="CGZvQxFrTtPSDZ94u5pw-19" value="S" style="rounded=0;whiteSpace=wrap;html=1;fontFamily=Noto Sans SC;fontSource=https%3A%2F%2Ffonts.googleapis.com%2Fcss%3Ffamily%3DNoto%2BSans%2BSC;fillColor=#1ba1e2;fontColor=#ffffff;strokeColor=none;fontSize=12;" parent="CGZvQxFrTtPSDZ94u5pw-25" vertex="1">
          <mxGeometry x="90" y="60" width="20" height="20" as="geometry" />
        </mxCell>
        <mxCell id="CGZvQxFrTtPSDZ94u5pw-21" value="A" style="rounded=0;whiteSpace=wrap;html=1;fontFamily=Noto Sans SC;fontSource=https%3A%2F%2Ffonts.googleapis.com%2Fcss%3Ffamily%3DNoto%2BSans%2BSC;fillColor=#1ba1e2;fontColor=#ffffff;strokeColor=none;fontSize=12;" parent="CGZvQxFrTtPSDZ94u5pw-25" vertex="1">
          <mxGeometry x="20" width="20" height="20" as="geometry" />
        </mxCell>
        <mxCell id="CGZvQxFrTtPSDZ94u5pw-22" value="B" style="rounded=0;whiteSpace=wrap;html=1;fontFamily=Noto Sans SC;fontSource=https%3A%2F%2Ffonts.googleapis.com%2Fcss%3Ffamily%3DNoto%2BSans%2BSC;fillColor=#1ba1e2;fontColor=#ffffff;strokeColor=none;fontSize=12;" parent="CGZvQxFrTtPSDZ94u5pw-25" vertex="1">
          <mxGeometry x="80" width="20" height="20" as="geometry" />
        </mxCell>
        <mxCell id="CGZvQxFrTtPSDZ94u5pw-24" value="12V" style="rounded=0;whiteSpace=wrap;html=1;fontFamily=Noto Sans SC;fontSource=https%3A%2F%2Ffonts.googleapis.com%2Fcss%3Ffamily%3DNoto%2BSans%2BSC;fillColor=#e51400;fontColor=#ffffff;strokeColor=none;fontSize=12;" parent="CGZvQxFrTtPSDZ94u5pw-25" vertex="1">
          <mxGeometry y="30" width="20" height="20" as="geometry" />
        </mxCell>
        <mxCell id="CGZvQxFrTtPSDZ94u5pw-43" value="POS" style="rounded=0;whiteSpace=wrap;html=1;fontFamily=Noto Sans SC;fontSource=https%3A%2F%2Ffonts.googleapis.com%2Fcss%3Ffamily%3DNoto%2BSans%2BSC;fillColor=#6d8764;fontColor=#ffffff;strokeColor=none;fontSize=12;" parent="CGZvQxFrTtPSDZ94u5pw-25" vertex="1">
          <mxGeometry x="100" y="30" width="20" height="20" as="geometry" />
        </mxCell>
        <mxCell id="CGZvQxFrTtPSDZ94u5pw-27" value="&lt;span style=&quot;font-style: normal; font-variant-ligatures: normal; font-variant-caps: normal; font-weight: 400; letter-spacing: normal; orphans: 2; text-align: center; text-indent: 0px; text-transform: none; widows: 2; word-spacing: 0px; -webkit-text-stroke-width: 0px; white-space: normal; text-decoration-thickness: initial; text-decoration-style: initial; text-decoration-color: initial; float: none; display: inline !important;&quot;&gt;节流阀&lt;/span&gt;" style="rounded=0;whiteSpace=wrap;html=1;fontFamily=Noto Sans SC;fontSource=https%3A%2F%2Ffonts.googleapis.com%2Fcss%3Ffamily%3DNoto%2BSans%2BSC;fillColor=#f0a30a;fontColor=#000000;strokeColor=#BD7000;labelBackgroundColor=none;fontSize=12;" parent="1" vertex="1">
          <mxGeometry x="70.06" y="330" width="40" height="20" as="geometry" />
        </mxCell>
        <mxCell id="CGZvQxFrTtPSDZ94u5pw-30" value="&lt;span style=&quot;font-style: normal; font-variant-ligatures: normal; font-variant-caps: normal; font-weight: 400; letter-spacing: normal; orphans: 2; text-align: center; text-indent: 0px; text-transform: none; widows: 2; word-spacing: 0px; -webkit-text-stroke-width: 0px; white-space: normal; text-decoration-thickness: initial; text-decoration-style: initial; text-decoration-color: initial; float: none; display: inline !important;&quot;&gt;节流阀&lt;/span&gt;" style="rounded=0;whiteSpace=wrap;html=1;fontFamily=Noto Sans SC;fontSource=https%3A%2F%2Ffonts.googleapis.com%2Fcss%3Ffamily%3DNoto%2BSans%2BSC;fillColor=#f0a30a;fontColor=#000000;strokeColor=#BD7000;labelBackgroundColor=none;fontSize=12;" parent="1" vertex="1">
          <mxGeometry x="150.06" y="330" width="40" height="20" as="geometry" />
        </mxCell>
        <mxCell id="CGZvQxFrTtPSDZ94u5pw-37" value="三通" style="shape=offPageConnector;whiteSpace=wrap;html=1;fontFamily=Noto Sans SC;fontSource=https%3A%2F%2Ffonts.googleapis.com%2Fcss%3Ffamily%3DNoto%2BSans%2BSC;fillColor=#f0a30a;fontColor=#000000;strokeColor=#BD7000;size=0.2;verticalAlign=top;fontSize=12;" parent="1" vertex="1">
          <mxGeometry x="140.06" y="170" width="40" height="40" as="geometry" />
        </mxCell>
        <mxCell id="CGZvQxFrTtPSDZ94u5pw-113" value="" style="group" parent="1" connectable="0" vertex="1">
          <mxGeometry x="60.06" y="40" width="40" height="100" as="geometry" />
        </mxCell>
        <mxCell id="CGZvQxFrTtPSDZ94u5pw-105" value="限位" style="rounded=0;whiteSpace=wrap;html=1;fontFamily=Noto Sans SC;fontSource=https%3A%2F%2Ffonts.googleapis.com%2Fcss%3Ffamily%3DNoto%2BSans%2BSC;fillColor=#008a00;fontColor=#ffffff;strokeColor=none;fontSize=12;" parent="CGZvQxFrTtPSDZ94u5pw-113" vertex="1">
          <mxGeometry width="40" height="20" as="geometry" />
        </mxCell>
        <mxCell id="CGZvQxFrTtPSDZ94u5pw-77" value="气缸" style="rounded=0;whiteSpace=wrap;html=1;fontFamily=Noto Sans SC;fontSource=https%3A%2F%2Ffonts.googleapis.com%2Fcss%3Ffamily%3DNoto%2BSans%2BSC;fontSize=12;fillColor=#ffe6cc;strokeColor=#d79b00;" parent="CGZvQxFrTtPSDZ94u5pw-113" vertex="1">
          <mxGeometry width="40" height="100" as="geometry" />
        </mxCell>
        <mxCell id="CGZvQxFrTtPSDZ94u5pw-78" value="无杆端" style="rounded=0;whiteSpace=wrap;html=1;fontFamily=Noto Sans SC;fontSource=https%3A%2F%2Ffonts.googleapis.com%2Fcss%3Ffamily%3DNoto%2BSans%2BSC;fontSize=12;fillColor=#1ba1e2;strokeColor=none;fontColor=#ffffff;" parent="CGZvQxFrTtPSDZ94u5pw-113" vertex="1">
          <mxGeometry y="60" width="40" height="20" as="geometry" />
        </mxCell>
        <mxCell id="CGZvQxFrTtPSDZ94u5pw-79" value="有杆端" style="rounded=0;whiteSpace=wrap;html=1;fontFamily=Noto Sans SC;fontSource=https%3A%2F%2Ffonts.googleapis.com%2Fcss%3Ffamily%3DNoto%2BSans%2BSC;fontSize=12;fillColor=#1ba1e2;strokeColor=none;fontColor=#ffffff;" parent="CGZvQxFrTtPSDZ94u5pw-113" vertex="1">
          <mxGeometry y="20" width="40" height="20" as="geometry" />
        </mxCell>
        <mxCell id="CGZvQxFrTtPSDZ94u5pw-111" value="限位" style="rounded=0;whiteSpace=wrap;html=1;fontFamily=Noto Sans SC;fontSource=https%3A%2F%2Ffonts.googleapis.com%2Fcss%3Ffamily%3DNoto%2BSans%2BSC;fillColor=#6d8764;fontColor=#ffffff;strokeColor=none;fontSize=12;" parent="CGZvQxFrTtPSDZ94u5pw-113" vertex="1">
          <mxGeometry width="40" height="20" as="geometry" />
        </mxCell>
        <mxCell id="CGZvQxFrTtPSDZ94u5pw-112" value="限位" style="rounded=0;whiteSpace=wrap;html=1;fontFamily=Noto Sans SC;fontSource=https%3A%2F%2Ffonts.googleapis.com%2Fcss%3Ffamily%3DNoto%2BSans%2BSC;fillColor=#6d8764;fontColor=#ffffff;strokeColor=none;fontSize=12;" parent="CGZvQxFrTtPSDZ94u5pw-113" vertex="1">
          <mxGeometry y="80" width="40" height="20" as="geometry" />
        </mxCell>
        <mxCell id="CGZvQxFrTtPSDZ94u5pw-114" value="" style="group" parent="1" connectable="0" vertex="1">
          <mxGeometry x="160.06" y="40" width="40" height="100" as="geometry" />
        </mxCell>
        <mxCell id="CGZvQxFrTtPSDZ94u5pw-90" value="气缸" style="rounded=0;whiteSpace=wrap;html=1;fontFamily=Noto Sans SC;fontSource=https%3A%2F%2Ffonts.googleapis.com%2Fcss%3Ffamily%3DNoto%2BSans%2BSC;fontSize=12;fillColor=#ffe6cc;strokeColor=#d79b00;" parent="CGZvQxFrTtPSDZ94u5pw-114" vertex="1">
          <mxGeometry width="40" height="100" as="geometry" />
        </mxCell>
        <mxCell id="CGZvQxFrTtPSDZ94u5pw-107" value="限位" style="rounded=0;whiteSpace=wrap;html=1;fontFamily=Noto Sans SC;fontSource=https%3A%2F%2Ffonts.googleapis.com%2Fcss%3Ffamily%3DNoto%2BSans%2BSC;fillColor=#6d8764;fontColor=#ffffff;strokeColor=none;fontSize=12;" parent="CGZvQxFrTtPSDZ94u5pw-114" vertex="1">
          <mxGeometry width="40" height="20" as="geometry" />
        </mxCell>
        <mxCell id="CGZvQxFrTtPSDZ94u5pw-91" value="无杆端" style="rounded=0;whiteSpace=wrap;html=1;fontFamily=Noto Sans SC;fontSource=https%3A%2F%2Ffonts.googleapis.com%2Fcss%3Ffamily%3DNoto%2BSans%2BSC;fontSize=12;fillColor=#1ba1e2;strokeColor=none;fontColor=#ffffff;" parent="CGZvQxFrTtPSDZ94u5pw-114" vertex="1">
          <mxGeometry y="60" width="40" height="20" as="geometry" />
        </mxCell>
        <mxCell id="CGZvQxFrTtPSDZ94u5pw-92" value="有杆端" style="rounded=0;whiteSpace=wrap;html=1;fontFamily=Noto Sans SC;fontSource=https%3A%2F%2Ffonts.googleapis.com%2Fcss%3Ffamily%3DNoto%2BSans%2BSC;fontSize=12;fillColor=#1ba1e2;strokeColor=none;fontColor=#ffffff;" parent="CGZvQxFrTtPSDZ94u5pw-114" vertex="1">
          <mxGeometry y="20" width="40" height="20" as="geometry" />
        </mxCell>
        <mxCell id="CGZvQxFrTtPSDZ94u5pw-110" value="限位" style="rounded=0;whiteSpace=wrap;html=1;fontFamily=Noto Sans SC;fontSource=https%3A%2F%2Ffonts.googleapis.com%2Fcss%3Ffamily%3DNoto%2BSans%2BSC;fillColor=#6d8764;fontColor=#ffffff;strokeColor=none;fontSize=12;" parent="CGZvQxFrTtPSDZ94u5pw-114" vertex="1">
          <mxGeometry y="80" width="40" height="20" as="geometry" />
        </mxCell>
        <mxCell id="CGZvQxFrTtPSDZ94u5pw-8" value="&lt;div style=&quot;forced-color-adjust: none; font-style: normal; font-variant-ligatures: normal; font-variant-caps: normal; font-weight: 400; letter-spacing: normal; orphans: 2; text-align: center; text-indent: 0px; text-transform: none; widows: 2; word-spacing: 0px; -webkit-text-stroke-width: 0px; white-space: normal; text-decoration-thickness: initial; text-decoration-style: initial; text-decoration-color: initial;&quot;&gt;消声器&lt;/div&gt;" style="rounded=0;whiteSpace=wrap;html=1;fontFamily=Noto Sans SC;fontSource=https%3A%2F%2Ffonts.googleapis.com%2Fcss%3Ffamily%3DNoto%2BSans%2BSC;fillColor=#f0a30a;fontColor=#000000;strokeColor=#BD7000;labelBorderColor=none;labelBackgroundColor=none;fillStyle=auto;fontSize=12;" parent="1" vertex="1">
          <mxGeometry x="70.06" y="350" width="40" height="20" as="geometry" />
        </mxCell>
        <mxCell id="CGZvQxFrTtPSDZ94u5pw-29" value="&lt;div style=&quot;forced-color-adjust: none; font-style: normal; font-variant-ligatures: normal; font-variant-caps: normal; font-weight: 400; letter-spacing: normal; orphans: 2; text-align: center; text-indent: 0px; text-transform: none; widows: 2; word-spacing: 0px; -webkit-text-stroke-width: 0px; white-space: normal; text-decoration-thickness: initial; text-decoration-style: initial; text-decoration-color: initial;&quot;&gt;消声器&lt;/div&gt;" style="rounded=0;whiteSpace=wrap;html=1;fontFamily=Noto Sans SC;fontSource=https%3A%2F%2Ffonts.googleapis.com%2Fcss%3Ffamily%3DNoto%2BSans%2BSC;fillColor=#f0a30a;fontColor=#000000;strokeColor=#BD7000;labelBorderColor=none;labelBackgroundColor=none;fillStyle=auto;fontSize=12;" parent="1" vertex="1">
          <mxGeometry x="150.06" y="350" width="40" height="20" as="geometry" />
        </mxCell>
        <mxCell id="CGZvQxFrTtPSDZ94u5pw-170" value="&lt;span style=&quot;font-style: normal; font-variant-ligatures: normal; font-variant-caps: normal; font-weight: 400; letter-spacing: normal; orphans: 2; text-align: center; text-indent: 0px; text-transform: none; widows: 2; word-spacing: 0px; -webkit-text-stroke-width: 0px; white-space: normal; text-decoration-thickness: initial; text-decoration-style: initial; text-decoration-color: initial; float: none; display: inline !important;&quot;&gt;调压阀&lt;/span&gt;" style="rounded=0;whiteSpace=wrap;html=1;fontFamily=Noto Sans SC;fontSource=https%3A%2F%2Ffonts.googleapis.com%2Fcss%3Ffamily%3DNoto%2BSans%2BSC;fillColor=#f0a30a;fontColor=#000000;strokeColor=#BD7000;labelBackgroundColor=none;fontSize=12;" parent="1" vertex="1">
          <mxGeometry x="110.06" y="380" width="40" height="20" as="geometry" />
        </mxCell>
        <mxCell id="CGZvQxFrTtPSDZ94u5pw-56" value="12V" style="rounded=0;whiteSpace=wrap;html=1;fontFamily=Noto Sans SC;fontSource=https%3A%2F%2Ffonts.googleapis.com%2Fcss%3Ffamily%3DNoto%2BSans%2BSC;fillColor=#e51400;fontColor=#ffffff;strokeColor=none;fontSize=12;" parent="1" vertex="1">
          <mxGeometry x="230.03" y="360" width="40" height="20" as="geometry" />
        </mxCell>
      </root>
    </mxGraphModel>
  </diagram>
</mxfile>
